<svg width="401" height="362" viewBox="0 0 401 362" fill="none" xmlns="http://www.w3.org/2000/svg">
<path d="M400.415 197.922C400.361 204.597 400.308 211.273 400.247 218.874C400.296 226.507 400.352 233.214 400.408 239.922C400.179 246.296 399.949 252.671 399.632 259.871C398.788 266.237 398.032 271.776 396.989 277.598C393.55 286.205 390.397 294.529 386.972 303.052C382.861 309.015 379.023 314.779 374.899 320.73C365.802 328.742 356.992 336.567 347.85 344.535C341.788 347.712 336.056 350.747 329.948 353.82C314.681 359.787 299.178 362.118 283.213 361.849C264.268 361.53 245.322 361.273 226.049 360.893C225.27 360.809 224.818 360.821 224.141 360.738C223.916 360.643 223.43 360.694 223.155 360.491C217.701 359.166 212.521 358.045 207.04 356.718C198.626 352.729 190.513 348.946 182.147 344.92C173.399 337.067 164.903 329.457 156.303 321.524C146.325 309.361 140.899 295.357 136.545 280.399C135.716 275.266 134.904 270.558 134.128 265.485C134.03 264.654 133.896 264.187 133.846 263.432C133.75 262.367 133.569 261.592 133.443 260.356C133.455 254.901 133.386 249.907 133.374 244.913C133.301 215.452 133.241 185.991 133.241 156.138C133.34 149.278 133.42 142.81 133.403 136.343C133.338 110.977 133.243 85.611 133.218 59.9411C133.139 59.2614 133.001 58.8853 133.042 58.3142C132.931 57.7975 132.641 57.4757 131.891 57.0686C89.9612 56.9615 48.4922 56.9159 7.02322 56.9642C3.73558 56.968 1.03673 56.5924 0.10829 52.4859C0.0981277 49.6443 0.0207657 47.2481 0.0223217 44.4606C0.0397627 43.0097 -0.0217308 41.9502 0.00849722 40.4729C0.0551282 38.3523 0.0100383 36.6493 0.0356273 34.6537C0.0615523 34.1657 0.0168139 33.9701 0.0561199 33.3388C0.101317 30.218 0.0624674 27.533 0.115995 24.4916C0.152036 23.4066 0.095686 22.678 0.115797 21.484C0.128675 15.327 0.0650765 9.63514 0.0810375 3.5626C0.249311 2.14909 0.338026 1.11628 0.890821 0.0643085C94.0532 0.0501175 186.752 0.122566 279.45 0.000191058C296.927 -0.0228809 313.927 2.03907 330.53 8.68229C333.461 9.90272 336.116 10.9511 339.008 12.2902C342.927 14.6943 346.61 16.8078 350.485 19.2002C364.419 28.4737 375.344 40.2062 384.282 54.2998C386.667 58.9293 388.962 63.2163 391.245 67.8462C392.204 70.5771 393.176 72.9651 394.149 75.3531C395.82 82.931 397.491 90.5089 399.247 98.9137C399.683 105.134 400.033 110.528 400.383 115.922C400.337 122.265 400.291 128.607 400.237 135.876C400.287 143.508 400.344 150.215 400.401 156.922C400.34 163.266 400.278 169.611 400.216 176.881C400.283 184.512 400.349 191.217 400.415 197.922ZM337.189 281.765C339.541 275.799 341.892 269.833 344.495 263.047C345.028 259.668 345.961 256.295 346.018 252.908C346.185 242.934 346.005 232.955 346.149 222.314C346.099 221.161 346.048 220.008 346.162 217.937C346.126 211.16 346.09 204.382 346.076 197.381C346.076 197.381 346.031 197.16 346.183 196.373C346.131 195.843 346.08 195.314 346.18 193.922C346.151 189.258 346.122 184.594 346.249 179.245C346.197 178.783 346.145 178.32 346.235 176.936C346.197 170.269 346.16 163.601 346.279 156.002C346.244 149.289 346.21 142.576 346.323 134.941C346.205 128.202 346.086 121.464 346.082 113.836C344.822 107.22 343.561 100.604 342.258 93.2412C335.998 76.0426 323.901 65.1683 305.646 59.8695C302.529 59.2578 299.411 58.6462 295.453 57.8282C291.147 57.5401 286.841 57.0174 282.534 57.0015C252.771 56.8916 223.008 56.8872 193.246 56.8494C191.312 56.847 189.378 56.8491 187.35 56.8491C187.35 62.9781 187.35 68.437 187.174 74.8196C187.165 81.7958 187.136 88.7721 187.15 95.7483C187.218 129.795 187.298 163.842 187.205 198.556C187.262 199.008 187.32 199.459 187.225 200.835C187.296 218.177 187.367 235.518 187.277 253.739C187.55 256.617 187.823 259.495 188.017 263.162C189.72 269.095 191.423 275.029 193.241 281.675C197.137 286.494 201.034 291.313 205.37 296.68C218.198 306.696 233.227 306.658 249.289 306.301C254.962 306.222 260.634 306.143 267.127 306.256C281.315 305.853 295.66 307.873 310.326 303.332C316.051 300.014 321.776 296.697 328.108 293.028C330.919 289.345 333.73 285.663 337.189 281.765Z" fill="#128BF7"/>
</svg>
